<svg width="40" height="40" viewBox="0 0 40 40" fill="none" xmlns="http://www.w3.org/2000/svg">
<path d="M4.16663 4.16671C4.16663 3.72468 4.34222 3.30075 4.65478 2.98819C4.96734 2.67563 5.39127 2.50004 5.83329 2.50004H27.275C29.5277 2.49332 31.696 3.35739 33.3266 4.91171C34.1155 5.66322 34.7442 6.56651 35.175 7.56725C35.6057 8.568 35.8297 9.64552 35.8333 10.735V35.8334C35.8333 36.2754 35.6577 36.6993 35.3451 37.0119C35.0326 37.3244 34.6087 37.5 34.1666 37.5H12.725C10.4728 37.5063 8.30522 36.6423 6.67496 35.0884C5.88588 34.3369 5.25691 33.4337 4.82585 32.433C4.3948 31.4322 4.17056 30.3547 4.16663 29.265V4.16671Z" fill="#8D55ED"/>
<path d="M12.5 11.667C12.058 11.667 11.6341 11.8426 11.3215 12.1551C11.009 12.4677 10.8334 12.8916 10.8334 13.3337C10.8334 13.7757 11.009 14.1996 11.3215 14.5122C11.6341 14.8247 12.058 15.0003 12.5 15.0003H14.1667C14.6087 15.0003 15.0327 14.8247 15.3452 14.5122C15.6578 14.1996 15.8334 13.7757 15.8334 13.3337C15.8334 12.8916 15.6578 12.4677 15.3452 12.1551C15.0327 11.8426 14.6087 11.667 14.1667 11.667H12.5ZM20.8334 11.667C20.3913 11.667 19.9674 11.8426 19.6549 12.1551C19.3423 12.4677 19.1667 12.8916 19.1667 13.3337C19.1667 13.7757 19.3423 14.1996 19.6549 14.5122C19.9674 14.8247 20.3913 15.0003 20.8334 15.0003H27.5C27.9421 15.0003 28.366 14.8247 28.6786 14.5122C28.9911 14.1996 29.1667 13.7757 29.1667 13.3337C29.1667 12.8916 28.9911 12.4677 28.6786 12.1551C28.366 11.8426 27.9421 11.667 27.5 11.667H20.8334ZM12.5 18.3337C12.058 18.3337 11.6341 18.5093 11.3215 18.8218C11.009 19.1344 10.8334 19.5583 10.8334 20.0003C10.8334 20.4424 11.009 20.8663 11.3215 21.1788C11.6341 21.4914 12.058 21.667 12.5 21.667H14.1667C14.6087 21.667 15.0327 21.4914 15.3452 21.1788C15.6578 20.8663 15.8334 20.4424 15.8334 20.0003C15.8334 19.5583 15.6578 19.1344 15.3452 18.8218C15.0327 18.5093 14.6087 18.3337 14.1667 18.3337H12.5ZM20.8334 18.3337C20.3913 18.3337 19.9674 18.5093 19.6549 18.8218C19.3423 19.1344 19.1667 19.5583 19.1667 20.0003C19.1667 20.4424 19.3423 20.8663 19.6549 21.1788C19.9674 21.4914 20.3913 21.667 20.8334 21.667H27.5C27.9421 21.667 28.366 21.4914 28.6786 21.1788C28.9911 20.8663 29.1667 20.4424 29.1667 20.0003C29.1667 19.5583 28.9911 19.1344 28.6786 18.8218C28.366 18.5093 27.9421 18.3337 27.5 18.3337H20.8334ZM10.8334 26.667C10.8334 26.225 11.009 25.801 11.3215 25.4885C11.6341 25.1759 12.058 25.0003 12.5 25.0003H14.1667C14.6087 25.0003 15.0327 25.1759 15.3452 25.4885C15.6578 25.801 15.8334 26.225 15.8334 26.667C15.8334 27.109 15.6578 27.5329 15.3452 27.8455C15.0327 28.1581 14.6087 28.3337 14.1667 28.3337H12.5C12.058 28.3337 11.6341 28.1581 11.3215 27.8455C11.009 27.5329 10.8334 27.109 10.8334 26.667ZM19.1667 26.667C19.1667 26.225 19.3423 25.801 19.6549 25.4885C19.9674 25.1759 20.3913 25.0003 20.8334 25.0003H27.5C27.9421 25.0003 28.366 25.1759 28.6786 25.4885C28.9911 25.801 29.1667 26.225 29.1667 26.667C29.1667 27.109 28.9911 27.5329 28.6786 27.8455C28.366 28.1581 27.9421 28.3337 27.5 28.3337H20.8334C20.3913 28.3337 19.9674 28.1581 19.6549 27.8455C19.3423 27.5329 19.1667 27.109 19.1667 26.667Z" fill="white"/>
</svg>
